<svg enable-background="new 0 0 33.158 60.061" height="512" viewBox="0 0 33.158 60.061" width="512" xmlns="http://www.w3.org/2000/svg"><path d="m27.93 60.061c-.396 0-.702-.037-.858-.061-2.597-.027-4.52-1.296-5.418-3.578-.168-.429-.509-.759-.934-.905-.373-.132-.759-.095-1.087.099-.36.211-.679.476-.95.787-1.167 1.348-3.208 1.544-4.646.446l-.143-.112c-.656-.523-1.578-.44-2.09.197-1.24 1.549-3.043 2.358-4.337 2.765-1.066.334-2.126.342-3.068.026-4.192-1.408-4.24-7.468-4.24-7.725 0-5.079 2.937-8.296 5.4-10.1 1.628-1.192 2.6-3.057 2.6-4.987v-15.1c0-2.41-1.237-4.731-3.308-6.209-2.136-1.524-3.417-3.953-4.115-5.722-.198-.501-1.151-3.093-.527-4.968.269-.804.679-1.522 1.22-2.131v-.001c1.877-2.114 5.184-2.42 7.694-.709 3.029 2.064 5.952 1.931 5.981 1.93 1.65-.002 3.856-1.034 6.267-2.907 1.147-.893 2.552-1.258 3.954-1.028 1.41.229 2.634 1.026 3.445 2.245.565.849 1.126 1.869 1.665 3.034.904 1.953.973 4.229.188 6.241-.785 2.014-2.305 3.575-4.281 4.397-.406.167-.815.324-1.222.471-2.967 1.062-4.96 3.894-4.96 7.046v18.396c.714 3.247 4.186 3.268 5.413 3.165.781-1.148 1.664-1.821 2.63-2.002.625-.117 1.599-.076 2.696.776 1.416 1.102 2.261 2.941 2.261 4.923v5.241c0 2.253-.645 3.924-1.916 4.966-1.114.911-2.436 1.094-3.314 1.094zm-7.651-6.619c.367 0 .737.061 1.094.185.979.338 1.76 1.09 2.143 2.063.612 1.555 1.803 2.311 3.642 2.311.066 0 .132.007.196.02.01.002 1.56.279 2.631-.609.778-.646 1.173-1.793 1.173-3.41v-5.241c0-1.369-.557-2.619-1.489-3.345-.409-.317-.779-.45-1.1-.389-.486.091-1.023.605-1.553 1.489-.151.251-.404.424-.693.472-2.404.399-7.204-.085-8.145-4.79-.013-.064-.02-.131-.02-.196v-18.501c0-3.994 2.526-7.582 6.286-8.929.377-.135.756-.28 1.13-.436 1.467-.61 2.599-1.773 3.184-3.275.597-1.531.547-3.192-.14-4.676-.496-1.071-1.005-2.002-1.514-2.766-.5-.751-1.246-1.24-2.101-1.38-.847-.136-1.702.088-2.405.633-1.952 1.519-4.828 3.327-7.44 3.327-.093.008-3.581.165-7.162-2.275-1.68-1.144-3.86-.979-5.071.384-.36.408-.636.892-.818 1.438-.293.879.048 2.484.489 3.602.49 1.243 1.586 3.522 3.416 4.827 2.596 1.853 4.146 4.782 4.146 7.838v15.101c0 2.566-1.278 5.034-3.418 6.601-2.09 1.53-4.582 4.245-4.582 8.486 0 .047.048 4.878 2.877 5.828.681.229 1.373.105 1.833-.038.841-.265 2.4-.89 3.375-2.106 1.213-1.512 3.369-1.733 4.91-.502l.079.062c.609.466 1.471.391 1.941-.152.415-.478.902-.882 1.449-1.202.506-.298 1.079-.449 1.657-.449z"/><path d="m23.157 51.001c-.209 0-.419-.065-.599-.2-.442-.331-.531-.958-.2-1.399l3-4c.332-.443.958-.53 1.4-.2.442.331.531.958.2 1.399l-3 4c-.196.262-.497.4-.801.4z"/><path d="m11.158 51.001c-.552 0-1-.447-1-1 0-2.737-.762-6-4.395-6-.552 0-1-.447-1-1s.448-1 1-1c4.004 0 6.395 2.99 6.395 8 0 .552-.448 1-1 1z"/><path d="m26.158 10.001c-2.206 0-4-1.794-4-4 0-.553.448-1 1-1s1 .447 1 1c0 1.103.897 2 2 2 .552 0 1 .447 1 1s-.448 1-1 1z"/><path d="m14.158 15.001c-2.206 0-4-1.794-4-4 0-.553.448-1 1-1s1 .447 1 1c0 1.103.897 2 2 2s2-.897 2-2c0-.553.448-1 1-1s1 .447 1 1c0 2.206-1.794 4-4 4z"/><path d="m15.158 26.001c-.552 0-1-.447-1-1v-4c0-.553.448-1 1-1s1 .447 1 1v4c0 .552-.448 1-1 1z"/><path d="m15.158 40.001c-.552 0-1-.447-1-1v-10c0-.553.448-1 1-1s1 .447 1 1v10c0 .552-.448 1-1 1z"/><path d="m7.158 8.001c-2.515 0-4.832-1.143-6.357-3.136-.335-.439-.252-1.067.187-1.402s1.067-.252 1.402.187c1.143 1.494 2.881 2.351 4.768 2.351.552 0 1 .447 1 1s-.448 1-1 1z"/></svg>