<?xml version="1.0" encoding="iso-8859-1"?>
<!-- Generator: Adobe Illustrator 17.1.0, SVG Export Plug-In . SVG Version: 6.00 Build 0)  -->
<!DOCTYPE svg PUBLIC "-//W3C//DTD SVG 1.1//EN" "http://www.w3.org/Graphics/SVG/1.1/DTD/svg11.dtd">
<svg version="1.1" id="Capa_1" xmlns="http://www.w3.org/2000/svg" xmlns:xlink="http://www.w3.org/1999/xlink" x="0px" y="0px"
	 viewBox="0 0 200.85 200.85" style="enable-background:new 0 0 200.85 200.85;" xml:space="preserve">
<g>
	<path d="M177.465,67.294l2.829,1.328c9.334,4.382,20.055-2.43,20.055-12.741V53.99c0-5.691-3.427-10.822-8.684-13.001
		l-17.451-7.236c-3.221-1.336-5.781-3.895-7.117-7.117l-7.236-17.451c-2.18-5.257-7.311-8.684-13.001-8.684l-1.892,0
		c-10.311,0-17.122,10.721-12.741,20.055l1.328,2.829c4.046,8.619,2.256,18.849-4.477,25.582l-90.84,90.84
		c-4.037,4.037-10.079,5.308-15.4,3.238l-2.716-1.057c-8.315-3.234-17.54,1.794-19.327,10.535v0
		c-1.326,6.485,1.934,13.039,7.905,15.895l13.149,6.289c1.88,0.899,3.395,2.415,4.294,4.294l6.294,13.161
		c2.854,5.968,9.408,9.224,15.889,7.893l0.013-0.003c8.734-1.794,13.754-11.014,10.522-19.324l-1.056-2.715
		c-2.07-5.322-0.8-11.364,3.238-15.402l90.839-90.839C158.616,65.038,168.846,63.248,177.465,67.294z"/>
	<path d="M45.426,200.85L45.426,200.85c-5.703-0.001-10.978-3.326-13.439-8.473l-6.294-13.161c-0.848-1.771-2.289-3.213-4.059-4.059
		l-13.149-6.289c-6.189-2.96-9.553-9.723-8.18-16.446c1.413-6.907,7.551-11.921,14.596-11.921c1.844,0,3.661,0.343,5.403,1.021
		l2.716,1.057c1.613,0.627,3.308,0.945,5.035,0.945c3.714,0,7.205-1.445,9.83-4.07l90.84-90.84
		c6.563-6.563,8.322-16.616,4.379-25.017l-1.328-2.829c-2.131-4.539-1.798-9.775,0.891-14.008S139.954,0,144.969,0h1.892
		c5.913,0,11.197,3.53,13.463,8.993l7.235,17.451c1.295,3.121,3.727,5.553,6.847,6.846l17.451,7.236
		c5.463,2.265,8.993,7.549,8.993,13.463v1.892c0,8.046-6.538,14.592-14.575,14.592c-2.133,0-4.217-0.471-6.193-1.398l-2.829-1.328
		c-2.961-1.39-6.118-2.095-9.384-2.095c-5.906,0-11.458,2.299-15.632,6.473l-90.839,90.84c-3.896,3.896-5.124,9.731-3.126,14.866
		l1.057,2.716c1.595,4.099,1.303,8.664-0.801,12.526c-2.103,3.862-5.779,6.585-10.087,7.47
		C47.439,200.746,46.43,200.85,45.426,200.85z M14.9,141.501c-6.571,0-12.298,4.677-13.615,11.122
		c-1.282,6.271,1.855,12.581,7.631,15.343l13.149,6.289c1.975,0.944,3.583,2.553,4.529,4.529l6.294,13.161
		c2.296,4.801,7.217,7.903,12.536,7.904h0.001c0.937,0,1.879-0.097,2.801-0.286c4.031-0.827,7.461-3.366,9.423-6.97
		c1.962-3.603,2.234-7.861,0.747-11.685l-1.057-2.716c-2.142-5.505-0.826-11.761,3.351-15.937l90.839-90.84
		c4.362-4.363,10.165-6.766,16.339-6.766c3.413,0,6.714,0.737,9.81,2.19l2.829,1.328c1.842,0.864,3.783,1.303,5.768,1.303
		c7.485,0,13.575-6.098,13.575-13.592v-1.892c0-5.508-3.288-10.43-8.376-12.539l-17.451-7.236c-3.367-1.396-5.99-4.019-7.388-7.387
		l-7.235-17.451C157.29,4.288,152.368,1,146.86,1h-1.892c-4.671,0-8.955,2.354-11.459,6.296s-2.814,8.819-0.83,13.046l1.328,2.829
		c4.122,8.781,2.283,19.29-4.576,26.149l-90.84,90.84c-2.813,2.813-6.556,4.363-10.537,4.363c-1.853,0-3.668-0.341-5.398-1.014
		l-2.716-1.057C18.315,141.821,16.62,141.501,14.9,141.501z"/>
</g>
<g>
</g>
<g>
</g>
<g>
</g>
<g>
</g>
<g>
</g>
<g>
</g>
<g>
</g>
<g>
</g>
<g>
</g>
<g>
</g>
<g>
</g>
<g>
</g>
<g>
</g>
<g>
</g>
<g>
</g>
</svg>
